# xmcd
#
# Track frame offsets:
#	150
#	14369
#	28796
#	42197
#	54594
#	68190
#	83897
#	102648
#	114521
#	126087
#	138191
#	151699
#	166617
#	179072
#	194778
#	206659
#
# Disc length: 3161 seconds
#
# Revision: 18
# Processed by: cddbd v1.5.2PL0 Copyright (c) Steve Scherf et al.
# Submitted via: EasyCDDAExtractor 15.3.0.1
#
DISCID=df0c5710
DTITLE=Cher - Gold - CD 1
DYEAR=2005
DGENRE=Pop/Rock
TTITLE0=I Got You Babe (Sonny and Cher)
TTITLE1=Baby Don't Go (Sonny and Cher)
TTITLE2=All I Really Want To Do
TTITLE3=Bang Bang (My Baby Shot Me Down)
TTITLE4=Alfie
TTITLE5=The Beat Goes On (Sonny and Cher)
TTITLE6=You Better Sit Down Kids
TTITLE7=Gypsys, Tramps and Thieves
TTITLE8=The Way Of Love
TTITLE9=All I Ever Need Is You (Sonny and Cher)
TTITLE10=Living In A House Divided
TTITLE11=A Cowboy's Work Is Never Done (Sonny and Cher)
TTITLE12=Half Breed
TTITLE13=Dark Lady
TTITLE14=Train Of Thought
TTITLE15=Take Me Home (Extended Version)
EXTD=
EXTT0=
EXTT1=
EXTT2=
EXTT3=
EXTT4=
EXTT5=
EXTT6=
EXTT7=
EXTT8=
EXTT9=
EXTT10=
EXTT11=
EXTT12=
EXTT13=
EXTT14=
EXTT15=
PLAYORDER=
